<svg width="35" height="35" viewBox="0 0 35 35" fill="none" xmlns="http://www.w3.org/2000/svg">
<path fill-rule="evenodd" clip-rule="evenodd" d="M23.9475 20.2538C27.1578 15.3952 26.6051 8.76925 22.302 4.46621C17.3898 -0.446048 9.45034 -0.470937 4.56878 4.41062C-0.312769 9.29217 -0.28788 17.2316 4.62438 22.1439C8.92742 26.4469 15.5534 26.9997 20.4119 23.7893L31.0853 34.4627L34.6208 30.9271L23.9475 20.2538ZM20.264 16.5703C21.5911 13.7779 21.0901 10.3254 18.7665 8.00174C15.8192 5.05439 11.0555 5.03945 8.12655 7.96839C5.19762 10.8973 5.21256 15.661 8.15991 18.6083C10.4835 20.932 13.936 21.433 16.7284 20.1058C17.478 19.7495 18.18 19.2615 18.7999 18.6417C19.4197 18.0219 19.9077 17.3198 20.264 16.5703Z" fill="white"/>
</svg>
