<svg width="814" height="190" viewBox="0 0 814 190" fill="none" xmlns="http://www.w3.org/2000/svg">
<path d="M79.4375 8.75V12.5H34C25.3333 12.6667 19.875 17.2917 17.625 26.375C15.375 35.4583 21.3333 46.5833 35.5 59.75C46 70.0833 43.3333 75.4583 27.5 75.875H12.25V72.125H27.5C39.2917 72.4583 40.7917 69.1667 32 62.25C17.5 48.9167 11.3333 36.6667 13.5 25.5C15.6667 14.3333 22.5 8.75 34 8.75H79.4375ZM79.4375 35.625H61.25C50.5417 35.2917 48.9583 38.25 56.5 44.5C70 56.3333 76.625 67.8333 76.375 79C76.125 90.1667 69.5 96.8333 56.5 99H12.25V95.25H56.5C67.5 92.9167 72.8333 86.9167 72.5 77.25C72.1667 67.5833 64.8333 56.6667 50.5 44.5C43.8333 35.8333 47.4167 31.625 61.25 31.875H79.4375V35.625ZM158.625 8.75V35.625H133.75V99H104.375V35.625H79.5V8.75H158.625ZM83.25 12.5V31.875H108.125V95.25H130V31.875H154.875V12.5H83.25ZM158.625 99L188.312 8.75H233.125L263.312 99H229.188L223.5 82.75H196.688L191 99H158.625ZM210.812 27.4375L223.625 64.5H197L210.812 27.4375ZM163.875 95.25H188.5L194.312 79H226.5L232.375 95.25H258.188L230.688 12.5H191.438L163.875 95.25ZM202.875 60.75H217.75L210.875 40.625L202.875 60.75ZM263.375 99V8.75H322.125C329.375 9.41667 335.188 11.2083 339.562 14.125C343.938 17.0417 346.917 19.8542 348.5 22.5625C350.083 25.2708 351.208 28.5833 351.875 32.5C352.542 36.4167 352.104 40.6875 350.562 45.3125C349.021 49.9375 346.375 53.7083 342.625 56.625C338.875 59.5417 333.5 61.8333 326.5 63.5L333.25 72.125H356.5V99H324.625L296 69.1875V99H263.375ZM267.125 95.25H292.25V65.4375H298.312L326.812 95.25H352.75V75.875H331.062L322.75 65.6875V60.4375C331.333 58.6875 337.188 56.5 340.312 53.875C343.479 51.25 345.708 48.0417 347 44.25C348.333 40.4583 348.75 36.8333 348.25 33.375C347.792 29.9167 346.896 27.0625 345.562 24.8125C344.271 22.5208 341.646 20.0417 337.688 17.375C333.729 14.7083 328.542 13.0833 322.125 12.5H267.125V95.25ZM294.438 29.6875H319.688C320.812 29.6875 322.188 30.3542 323.812 31.6875C325.438 32.9792 326.396 35.6875 326.688 39.8125C326.521 44.1042 325.646 46.7917 324.062 47.875C322.521 48.9583 321.083 49.5 319.75 49.5H294.438V29.6875ZM298.312 33.3125V46.0625H317.625C318.625 46.0625 319.729 45.7292 320.938 45.0625C322.188 44.3542 322.854 42.5833 322.938 39.75C322.729 37.1667 321.979 35.4583 320.688 34.625C319.438 33.75 318.396 33.3125 317.562 33.3125H298.312ZM419.625 12.5V8.75H442L454.375 47.75L465.125 8.75H492.125L504.688 47.75L513.062 8.75H536.625V12.5H516.062L506.812 51.5H502.625L489.562 12.5H468.312L457.062 51.5H451.688L439.312 12.5H419.625ZM532.875 31.875H536.625V35.625H535.875L519.812 99H490.438L479 60.75L469.5 99H440.125L420.375 35.625H419.625V31.875H423.375L443.25 95.25H466.625L476.5 57.0625H481.625L493.312 95.25H517.062L532.875 31.875ZM536.625 99L566.312 8.75H611.125L641.312 99H607.188L601.5 82.75H574.688L569 99H536.625ZM588.812 27.4375L601.625 64.5H575L588.812 27.4375ZM541.875 95.25H566.5L572.312 79H604.5L610.375 95.25H636.188L608.688 12.5H569.438L541.875 95.25ZM580.875 60.75H595.75L588.875 40.625L580.875 60.75ZM641.375 99V8.75H700.125C707.375 9.41667 713.188 11.2083 717.562 14.125C721.938 17.0417 724.917 19.8542 726.5 22.5625C728.083 25.2708 729.208 28.5833 729.875 32.5C730.542 36.4167 730.104 40.6875 728.562 45.3125C727.021 49.9375 724.375 53.7083 720.625 56.625C716.875 59.5417 711.5 61.8333 704.5 63.5L711.25 72.125H734.5V99H702.625L674 69.1875V99H641.375ZM645.125 95.25H670.25V65.4375H676.312L704.812 95.25H730.75V75.875H709.062L700.75 65.6875V60.4375C709.333 58.6875 715.188 56.5 718.312 53.875C721.479 51.25 723.708 48.0417 725 44.25C726.333 40.4583 726.75 36.8333 726.25 33.375C725.792 29.9167 724.896 27.0625 723.562 24.8125C722.271 22.5208 719.646 20.0417 715.688 17.375C711.729 14.7083 706.542 13.0833 700.125 12.5H645.125V95.25ZM672.438 29.6875H697.688C698.812 29.6875 700.188 30.3542 701.812 31.6875C703.438 32.9792 704.396 35.6875 704.688 39.8125C704.521 44.1042 703.646 46.7917 702.062 47.875C700.521 48.9583 699.083 49.5 697.75 49.5H672.438V29.6875ZM676.312 33.3125V46.0625H695.625C696.625 46.0625 697.729 45.7292 698.938 45.0625C700.188 44.3542 700.854 42.5833 700.938 39.75C700.729 37.1667 699.979 35.4583 698.688 34.625C697.438 33.75 696.396 33.3125 695.562 33.3125H676.312ZM805.438 8.75V35.625H787.25C776.542 35.2917 774.958 38.25 782.5 44.5C796 56.3333 802.625 67.8333 802.375 79C802.125 90.1667 795.5 96.8333 782.5 99H734.5V72.125H753.5C765.292 72.4583 766.792 69.1667 758 62.25C743.5 48.9167 737.333 36.6667 739.5 25.5C741.667 14.3333 748.5 8.75 760 8.75H805.438ZM738.25 75.875V95.25H782.5C793.5 92.9167 798.833 86.9167 798.5 77.25C798.167 67.5833 790.833 56.6667 776.5 44.5C769.833 35.8333 773.417 31.625 787.25 31.875H801.688V12.5H760C751.333 12.6667 745.875 17.2917 743.625 26.375C741.375 35.4583 747.333 46.5833 761.5 59.75C772 70.0833 769.333 75.4583 753.5 75.875H738.25Z" fill="#D0E10C"/>
<path d="M250.438 149.703C250.562 151.578 250.969 152.984 251.656 153.922C252.344 154.859 253.164 155.602 254.117 156.148C255.07 156.695 256.516 157.094 258.453 157.344C260.453 157.219 261.891 156.953 262.766 156.547C263.641 156.141 264.641 155.469 265.766 154.531L272.422 161.938C270.484 163.75 268.562 165 266.656 165.688C264.75 166.375 261.984 166.812 258.359 167C254.859 166.812 252.211 166.305 250.414 165.477C248.617 164.633 246.836 163.523 245.07 162.148C243.32 160.758 241.945 159.023 240.945 156.945C239.961 154.852 239.469 152.43 239.469 149.68C239.469 146.961 239.961 144.562 240.945 142.484C241.945 140.391 243.32 138.656 245.07 137.281C246.836 135.891 248.617 134.781 250.414 133.953C252.211 133.109 254.859 132.594 258.359 132.406C261.984 132.594 264.75 133.031 266.656 133.719C268.562 134.406 270.484 135.656 272.422 137.469L265.766 144.875C264.641 143.938 263.641 143.266 262.766 142.859C261.891 142.453 260.453 142.188 258.453 142.062C256.516 142.312 255.07 142.711 254.117 143.258C253.164 143.805 252.344 144.547 251.656 145.484C250.969 146.422 250.562 147.828 250.438 149.703ZM293.797 144.828V133.156H304.812V167H293.797V154.812H284.938V167H273.922V133.156H284.938V144.828H293.797ZM303.875 167L315.008 133.156H331.812L343.133 167H330.336L328.203 160.906H318.148L316.016 167H303.875ZM323.445 140.656L318.594 154.062H327.922L323.445 140.656ZM342.688 167V133.156H364.719C367.438 133.406 369.672 134.125 371.422 135.312C373.172 136.5 374.453 138.094 375.266 140.094C375.891 143.094 375.922 145.406 375.359 147.031C374.797 148.656 373.812 150.016 372.406 151.109C371 152.203 368.984 153.062 366.359 153.688L368.891 156.922H379.016V167H365.656L354.922 155.82V167H342.688ZM354.922 141.594V147.828H363.453C363.906 147.828 364.398 147.664 364.93 147.336C365.461 146.992 365.742 146.141 365.773 144.781C365.695 143.484 365.375 142.633 364.812 142.227C364.266 141.805 363.805 141.594 363.43 141.594H354.922ZM375.734 167L386.867 133.156H403.672L414.992 167H402.195L400.062 160.906H390.008L387.875 167H375.734ZM395.305 140.656L390.453 154.062H399.781L395.305 140.656ZM437.328 156.922H447.922V167H432.922C429.25 167 425.93 166.352 422.961 165.055C419.992 163.742 417.648 161.781 415.93 159.172C414.227 156.562 413.375 153.367 413.375 149.586C413.375 146.93 413.883 144.562 414.898 142.484C415.93 140.391 417.352 138.656 419.164 137.281C420.977 135.891 423.055 134.859 425.398 134.188C427.758 133.5 430.266 133.156 432.922 133.156H442.203H447.922V143.234H437.328C434.953 143.234 433.195 143.305 432.055 143.445C430.914 143.586 429.898 143.82 429.008 144.148C428.117 144.477 427.328 145.047 426.641 145.859C425.953 146.672 425.555 148.109 425.445 150.172C425.523 152.172 425.922 153.602 426.641 154.461C427.359 155.32 428.234 155.891 429.266 156.172C430.297 156.453 431.359 156.648 432.453 156.758C433.547 156.867 435.172 156.922 437.328 156.922ZM480.172 133.156V143.234H469.438V167H458.422V143.234H447.688V133.156H480.172ZM481.344 167V133.156H510.359V143.234H492.359V147.125H503.984V153.031H492.359V156.922H513.219V167H481.344ZM513.219 167V133.156H535.25C537.969 133.406 540.203 134.125 541.953 135.312C543.703 136.5 544.984 138.094 545.797 140.094C546.422 143.094 546.453 145.406 545.891 147.031C545.328 148.656 544.344 150.016 542.938 151.109C541.531 152.203 539.516 153.062 536.891 153.688L539.422 156.922H549.547V167H536.188L525.453 155.82V167H513.219ZM525.453 141.594V147.828H533.984C534.438 147.828 534.93 147.664 535.461 147.336C535.992 146.992 536.273 146.141 536.305 144.781C536.227 143.484 535.906 142.633 535.344 142.227C534.797 141.805 534.336 141.594 533.961 141.594H525.453ZM576.172 133.156H557.703C553.391 133.156 550.828 135.25 550.016 139.438C549.203 143.625 551.516 148.219 556.953 153.219C560.25 155.812 559.688 157.047 555.266 156.922H548.141V167H566.141C571.016 166.188 573.5 163.688 573.594 159.5C573.688 155.312 571.203 151 566.141 146.562C563.312 144.219 563.906 143.109 567.922 143.234H576.172V133.156Z" fill="#DADADA"/>
</svg>
